<?xml version="1.0" encoding="utf-8"?>
<!-- Generator: Adobe Illustrator 16.0.0, SVG Export Plug-In . SVG Version: 6.00 Build 0)  -->
<!DOCTYPE svg PUBLIC "-//W3C//DTD SVG 1.1//EN" "http://www.w3.org/Graphics/SVG/1.1/DTD/svg11.dtd">
<svg version="1.1" id="Ebene_1" xmlns="http://www.w3.org/2000/svg" xmlns:xlink="http://www.w3.org/1999/xlink" x="0px" y="0px"
	 width="25.965px" height="33.334px" viewBox="0 0 25.965 33.334" enable-background="new 0 0 25.965 33.334" xml:space="preserve">
<g>
	
		<path fill-rule="evenodd" clip-rule="evenodd" fill="#FFFFFF" stroke="#FFFFFF" stroke-width="0.1557" stroke-linecap="round" stroke-linejoin="round" stroke-miterlimit="10" d="
		M2.63,7.908C2.055,5.566,2,3.146,2.545,0.631C3.23,2.04,4.063,3.372,5.083,4.608C4.04,5.302,3.23,6.43,2.63,7.908L2.63,7.908z"/>
	
		<path fill-rule="evenodd" clip-rule="evenodd" fill="#FFFFFF" stroke="#FFFFFF" stroke-width="0.1557" stroke-linecap="round" stroke-linejoin="round" stroke-miterlimit="10" d="
		M23.965,7.908c0.585-2.342,0.639-4.763,0.086-7.277c-0.685,1.409-1.518,2.741-2.537,3.978C22.564,5.302,23.366,6.43,23.965,7.908
		L23.965,7.908z"/>
	
		<path fill-rule="evenodd" clip-rule="evenodd" fill="#FFFFFF" stroke="#FFFFFF" stroke-width="0.1557" stroke-linecap="round" stroke-linejoin="round" stroke-miterlimit="10" d="
		M8.943,6.711c1.883,0,3.409,1.524,3.409,3.401c0,1.884-1.526,3.408-3.409,3.408c-1.876,0-3.401-1.524-3.401-3.408
		c0-0.296,0.038-0.584,0.109-0.856c0.171,0.653,0.771,1.136,1.479,1.136c0.84,0,1.525-0.685,1.525-1.524
		c0-0.842-0.685-1.525-1.525-1.525c-0.055,0-0.117,0-0.171,0.005C7.519,6.944,8.204,6.711,8.943,6.711L8.943,6.711z"/>
	
		<path fill-rule="evenodd" clip-rule="evenodd" fill="#FFFFFF" stroke="#FFFFFF" stroke-width="0.1557" stroke-linecap="round" stroke-linejoin="round" stroke-miterlimit="10" d="
		M17.848,6.711c1.883,0,3.408,1.524,3.408,3.401c0,1.884-1.525,3.408-3.408,3.408c-1.877,0-3.402-1.524-3.402-3.408
		c0-0.296,0.04-0.584,0.109-0.856c0.171,0.653,0.77,1.136,1.479,1.136c0.84,0,1.526-0.685,1.526-1.524
		c0-0.842-0.686-1.525-1.526-1.525c-0.054,0-0.109,0-0.171,0.005C16.423,6.944,17.108,6.711,17.848,6.711L17.848,6.711z"/>
	
		<path fill-rule="evenodd" clip-rule="evenodd" fill="#FFFFFF" stroke="#FFFFFF" stroke-width="0.1557" stroke-linecap="round" stroke-linejoin="round" stroke-miterlimit="10" d="
		M5.262,16.876c-0.607,4.437,0.187,8.607,1.682,12.641c-3.846-2.795-5.729-7.837-4.819-16.082
		C3.168,14.79,4.219,15.935,5.262,16.876L5.262,16.876z"/>
	
		<path fill-rule="evenodd" clip-rule="evenodd" fill="#FFFFFF" stroke="#FFFFFF" stroke-width="0.1557" stroke-linecap="round" stroke-linejoin="round" stroke-miterlimit="10" d="
		M21.451,16.876c0.608,4.437-0.187,8.607-1.681,12.641c3.845-2.795,5.721-7.837,4.817-16.082
		C23.537,14.79,22.495,15.935,21.451,16.876L21.451,16.876z"/>
	
		<path fill-rule="evenodd" clip-rule="evenodd" fill="#FFFFFF" stroke="#FFFFFF" stroke-width="0.1557" stroke-linecap="round" stroke-linejoin="round" stroke-miterlimit="10" d="
		M10.125,19.484c-0.303,0.731-0.996,1.189-1.766,1.189c-1.051,0-1.907-0.855-1.907-1.915c0-0.295,0.071-0.591,0.21-0.871
		C7.822,18.604,8.975,19.133,10.125,19.484L10.125,19.484z"/>
	
		<path fill-rule="evenodd" clip-rule="evenodd" fill="#FFFFFF" stroke="#FFFFFF" stroke-width="0.1557" stroke-linecap="round" stroke-linejoin="round" stroke-miterlimit="10" d="
		M16.586,19.484c0.304,0.731,0.997,1.189,1.759,1.189c1.059,0,1.916-0.855,1.916-1.915c0-0.295-0.07-0.591-0.21-0.871
		C18.89,18.604,17.738,19.133,16.586,19.484L16.586,19.484z"/>
	
		<path fill-rule="evenodd" clip-rule="evenodd" fill="#FFFFFF" stroke="#FFFFFF" stroke-width="0.1557" stroke-linecap="round" stroke-linejoin="round" stroke-miterlimit="10" d="
		M15.249,19.864c0.015,0.785-0.444,1.487-1.145,1.791c-0.965,0.421-2.095-0.021-2.514-0.987c-0.117-0.273-0.172-0.571-0.156-0.889
		C12.78,19.975,14.049,20.005,15.249,19.864L15.249,19.864z"/>
	
		<path fill-rule="evenodd" clip-rule="evenodd" fill="#FFFFFF" stroke="#FFFFFF" stroke-width="0.1557" stroke-linecap="round" stroke-linejoin="round" stroke-miterlimit="10" d="
		M15.249,22.97c0.015,0.788-0.444,1.487-1.145,1.791c-0.965,0.419-2.095-0.024-2.514-0.988c-0.117-0.272-0.172-0.569-0.156-0.889
		C12.78,23.079,14.049,23.11,15.249,22.97L15.249,22.97z"/>
	
		<path fill-rule="evenodd" clip-rule="evenodd" fill="#FFFFFF" stroke="#FFFFFF" stroke-width="0.1557" stroke-linecap="round" stroke-linejoin="round" stroke-miterlimit="10" d="
		M15.249,26.66c0.015,0.785-0.444,1.479-1.145,1.791c-0.965,0.42-2.095-0.023-2.514-0.997c-0.117-0.272-0.172-0.569-0.156-0.88
		C12.78,26.762,14.049,26.793,15.249,26.66L15.249,26.66z"/>
	
		<path fill-rule="evenodd" clip-rule="evenodd" fill="#FFFFFF" stroke="#FFFFFF" stroke-width="0.1557" stroke-linecap="round" stroke-linejoin="round" stroke-miterlimit="10" d="
		M10.337,22.775C10.032,23.5,9.34,23.96,8.578,23.96c-1.059,0-1.916-0.857-1.916-1.916c0-0.296,0.07-0.591,0.21-0.87
		C8.032,21.889,9.185,22.417,10.337,22.775L10.337,22.775z"/>
	
		<path fill-rule="evenodd" clip-rule="evenodd" fill="#FFFFFF" stroke="#FFFFFF" stroke-width="0.1557" stroke-linecap="round" stroke-linejoin="round" stroke-miterlimit="10" d="
		M16.376,22.775c0.296,0.725,0.989,1.185,1.76,1.185c1.058,0,1.914-0.857,1.914-1.916c0-0.296-0.07-0.591-0.218-0.87
		C18.68,21.889,17.529,22.417,16.376,22.775L16.376,22.775z"/>
	
		<path fill-rule="evenodd" clip-rule="evenodd" fill="#FFFFFF" stroke="#FFFFFF" stroke-width="0.1557" stroke-linecap="round" stroke-linejoin="round" stroke-miterlimit="10" d="
		M10.515,26.458c-0.303,0.724-0.996,1.183-1.765,1.183c-1.052,0-1.909-0.857-1.909-1.906c0-0.297,0.071-0.592,0.211-0.873
		C8.211,25.577,9.364,26.108,10.515,26.458L10.515,26.458z"/>
	
		<path fill-rule="evenodd" clip-rule="evenodd" fill="#FFFFFF" stroke="#FFFFFF" stroke-width="0.1557" stroke-linecap="round" stroke-linejoin="round" stroke-miterlimit="10" d="
		M16.197,26.458c0.304,0.724,0.997,1.183,1.759,1.183c1.058,0,1.915-0.857,1.915-1.906c0-0.297-0.07-0.592-0.21-0.873
		C18.501,25.577,17.35,26.108,16.197,26.458L16.197,26.458z"/>
	
		<path fill-rule="evenodd" clip-rule="evenodd" fill="#FFFFFF" stroke="#FFFFFF" stroke-width="0.1557" stroke-linecap="round" stroke-linejoin="round" stroke-miterlimit="10" d="
		M13.512,16.829c0.186-1.186,0.787-2.265,1.681-3.076c-0.763-0.514-1.339-1.243-1.658-2.093c-0.124-0.123-0.233-0.107-0.343,0
		c-0.319,0.85-0.895,1.579-1.657,2.093c0.896,0.812,1.495,1.891,1.682,3.076C13.278,17.056,13.419,17.118,13.512,16.829
		L13.512,16.829z"/>
	
		<path fill-rule="evenodd" clip-rule="evenodd" fill="#FFFFFF" stroke="#FFFFFF" stroke-width="0.1557" stroke-linecap="round" stroke-linejoin="round" stroke-miterlimit="10" d="
		M12.018,32.086l1.113-1.837h0.428l1.104,1.837c-0.147-0.14-0.342-0.272-0.56-0.367C13.364,31.393,12.532,31.58,12.018,32.086
		L12.018,32.086z"/>
	
		<polygon fill-rule="evenodd" clip-rule="evenodd" fill="#FFFFFF" stroke="#FFFFFF" stroke-width="0.1557" stroke-linecap="round" stroke-linejoin="round" stroke-miterlimit="10" points="
		10.313,31.183 9.526,32.506 8.188,30.249 12.454,30.249 11.107,32.506 	"/>
	
		<polygon fill-rule="evenodd" clip-rule="evenodd" fill="#FFFFFF" stroke="#FFFFFF" stroke-width="0.1557" stroke-linecap="round" stroke-linejoin="round" stroke-miterlimit="10" points="
		16.509,31.183 17.294,32.506 18.634,30.249 14.369,30.249 15.715,32.506 	"/>
</g>
</svg>
