<?xml version="1.0" encoding="utf-8"?>
<!-- Generator: Adobe Illustrator 16.0.0, SVG Export Plug-In . SVG Version: 6.00 Build 0)  -->
<!DOCTYPE svg PUBLIC "-//W3C//DTD SVG 1.1//EN" "http://www.w3.org/Graphics/SVG/1.1/DTD/svg11.dtd">
<svg version="1.1" id="Ebene_1" xmlns="http://www.w3.org/2000/svg" xmlns:xlink="http://www.w3.org/1999/xlink" x="0px" y="0px"
	 width="176.092px" height="207.31px" viewBox="0 0 176.092 207.31" enable-background="new 0 0 176.092 207.31"
	 xml:space="preserve">
<g>
	
		<path fill-rule="evenodd" clip-rule="evenodd" fill="#2C3E50" stroke="#2C3E50" stroke-width="0.9281" stroke-linecap="round" stroke-linejoin="round" stroke-miterlimit="10" d="
		M17.895,49.453c-3.435-13.968-3.759-28.4-0.511-43.39c4.083,8.4,9.048,16.334,15.128,23.713
		C26.294,33.907,21.468,40.635,17.895,49.453L17.895,49.453z"/>
	
		<path fill-rule="evenodd" clip-rule="evenodd" fill="#2C3E50" stroke="#2C3E50" stroke-width="0.9281" stroke-linecap="round" stroke-linejoin="round" stroke-miterlimit="10" d="
		M145.087,49.453c3.481-13.968,3.806-28.4,0.511-43.39c-4.083,8.4-9.048,16.334-15.128,23.713
		C136.735,33.907,141.515,40.635,145.087,49.453L145.087,49.453z"/>
	
		<path fill-rule="evenodd" clip-rule="evenodd" fill="#2C3E50" stroke="#2C3E50" stroke-width="0.9281" stroke-linecap="round" stroke-linejoin="round" stroke-miterlimit="10" d="
		M55.528,42.305c11.229,0,20.325,9.096,20.325,20.279c0,11.23-9.097,20.326-20.325,20.326c-11.184,0-20.278-9.096-20.278-20.326
		c0-1.764,0.231-3.48,0.649-5.104c1.021,3.898,4.594,6.775,8.816,6.775c5.012,0,9.095-4.083,9.095-9.095
		c0-5.012-4.083-9.096-9.095-9.096c-0.325,0-0.696,0-1.021,0.046C47.036,43.698,51.12,42.305,55.528,42.305L55.528,42.305z"/>
	
		<path fill-rule="evenodd" clip-rule="evenodd" fill="#2C3E50" stroke="#2C3E50" stroke-width="0.9281" stroke-linecap="round" stroke-linejoin="round" stroke-miterlimit="10" d="
		M108.613,42.305c11.231,0,20.325,9.096,20.325,20.279c0,11.23-9.094,20.326-20.325,20.326c-11.184,0-20.277-9.096-20.277-20.326
		c0-1.764,0.231-3.48,0.648-5.104c1.021,3.898,4.596,6.775,8.818,6.775c5.011,0,9.095-4.083,9.095-9.095
		c0-5.012-4.084-9.096-9.095-9.096c-0.325,0-0.649,0-1.021,0.046C100.123,43.698,104.206,42.305,108.613,42.305L108.613,42.305z"/>
	
		<path fill-rule="evenodd" clip-rule="evenodd" fill="#2C3E50" stroke="#2C3E50" stroke-width="0.9281" stroke-linecap="round" stroke-linejoin="round" stroke-miterlimit="10" d="
		M33.58,102.912c-3.62,26.45,1.113,51.324,10.023,75.36c-22.924-16.66-34.153-46.728-28.724-95.872
		C21.097,90.474,27.361,97.295,33.58,102.912L33.58,102.912z"/>
	
		<path fill-rule="evenodd" clip-rule="evenodd" fill="#2C3E50" stroke="#2C3E50" stroke-width="0.9281" stroke-linecap="round" stroke-linejoin="round" stroke-miterlimit="10" d="
		M130.099,102.912c3.621,26.45-1.113,51.324-10.023,75.36c22.924-16.66,34.108-46.728,28.724-95.872
		C142.536,90.474,136.317,97.295,130.099,102.912L130.099,102.912z"/>
	
		<path fill-rule="evenodd" clip-rule="evenodd" fill="#2C3E50" stroke="#2C3E50" stroke-width="0.9281" stroke-linecap="round" stroke-linejoin="round" stroke-miterlimit="10" d="
		M62.581,118.455c-1.81,4.364-5.938,7.101-10.534,7.101c-6.265,0-11.369-5.103-11.369-11.414c0-1.763,0.417-3.527,1.252-5.198
		C48.846,113.212,55.714,116.368,62.581,118.455L62.581,118.455z"/>
	
		<path fill-rule="evenodd" clip-rule="evenodd" fill="#2C3E50" stroke="#2C3E50" stroke-width="0.9281" stroke-linecap="round" stroke-linejoin="round" stroke-miterlimit="10" d="
		M101.096,118.455c1.812,4.364,5.94,7.101,10.488,7.101c6.312,0,11.416-5.103,11.416-11.414c0-1.763-0.419-3.527-1.253-5.198
		C114.831,113.212,107.964,116.368,101.096,118.455L101.096,118.455z"/>
	
		<path fill-rule="evenodd" clip-rule="evenodd" fill="#2C3E50" stroke="#2C3E50" stroke-width="0.9281" stroke-linecap="round" stroke-linejoin="round" stroke-miterlimit="10" d="
		M93.115,120.729c0.094,4.688-2.646,8.865-6.822,10.675c-5.753,2.506-12.482-0.139-14.988-5.892
		c-0.695-1.626-1.021-3.391-0.928-5.29C78.405,121.379,85.969,121.566,93.115,120.729L93.115,120.729z"/>
	
		<path fill-rule="evenodd" clip-rule="evenodd" fill="#2C3E50" stroke="#2C3E50" stroke-width="0.9281" stroke-linecap="round" stroke-linejoin="round" stroke-miterlimit="10" d="
		M93.115,139.247c0.094,4.688-2.646,8.86-6.822,10.672c-5.753,2.505-12.482-0.14-14.988-5.893c-0.695-1.624-1.021-3.388-0.928-5.291
		C78.405,139.896,85.969,140.081,93.115,139.247L93.115,139.247z"/>
	
		<path fill-rule="evenodd" clip-rule="evenodd" fill="#2C3E50" stroke="#2C3E50" stroke-width="0.9281" stroke-linecap="round" stroke-linejoin="round" stroke-miterlimit="10" d="
		M93.115,161.24c0.094,4.688-2.646,8.817-6.822,10.676c-5.753,2.505-12.482-0.14-14.988-5.94c-0.695-1.624-1.021-3.387-0.928-5.245
		C78.405,161.847,85.969,162.03,93.115,161.24L93.115,161.24z"/>
	
		<path fill-rule="evenodd" clip-rule="evenodd" fill="#2C3E50" stroke="#2C3E50" stroke-width="0.9281" stroke-linecap="round" stroke-linejoin="round" stroke-miterlimit="10" d="
		M63.834,138.086c-1.81,4.316-5.938,7.054-10.487,7.054c-6.311,0-11.416-5.106-11.416-11.417c0-1.764,0.418-3.527,1.253-5.195
		C50.099,132.796,56.967,135.952,63.834,138.086L63.834,138.086z"/>
	
		<path fill-rule="evenodd" clip-rule="evenodd" fill="#2C3E50" stroke="#2C3E50" stroke-width="0.9281" stroke-linecap="round" stroke-linejoin="round" stroke-miterlimit="10" d="
		M99.844,138.086c1.764,4.316,5.894,7.054,10.487,7.054c6.312,0,11.416-5.106,11.416-11.417c0-1.764-0.418-3.527-1.301-5.195
		C113.579,132.796,106.712,135.952,99.844,138.086L99.844,138.086z"/>
	
		<path fill-rule="evenodd" clip-rule="evenodd" fill="#2C3E50" stroke="#2C3E50" stroke-width="0.9281" stroke-linecap="round" stroke-linejoin="round" stroke-miterlimit="10" d="
		M64.901,160.036c-1.809,4.315-5.939,7.053-10.533,7.053c-6.264,0-11.369-5.106-11.369-11.369c0-1.764,0.417-3.526,1.253-5.198
		C51.166,154.79,58.034,157.946,64.901,160.036L64.901,160.036z"/>
	
		<path fill-rule="evenodd" clip-rule="evenodd" fill="#2C3E50" stroke="#2C3E50" stroke-width="0.9281" stroke-linecap="round" stroke-linejoin="round" stroke-miterlimit="10" d="
		M98.776,160.036c1.81,4.315,5.939,7.053,10.487,7.053c6.31,0,11.416-5.106,11.416-11.369c0-1.764-0.419-3.526-1.254-5.198
		C112.512,154.79,105.644,157.946,98.776,160.036L98.776,160.036z"/>
	
		<path fill-rule="evenodd" clip-rule="evenodd" fill="#2C3E50" stroke="#2C3E50" stroke-width="0.9281" stroke-linecap="round" stroke-linejoin="round" stroke-miterlimit="10" d="
		M82.767,102.633c1.114-7.055,4.688-13.504,10.023-18.33c-4.548-3.063-7.981-7.425-9.884-12.483c-0.741-0.743-1.392-0.65-2.041,0
		c-1.903,5.058-5.337,9.419-9.885,12.483c5.337,4.826,8.91,11.275,10.022,18.33C81.375,103.978,82.21,104.349,82.767,102.633
		L82.767,102.633z"/>
	
		<path fill-rule="evenodd" clip-rule="evenodd" fill="#2C3E50" stroke="#2C3E50" stroke-width="0.9281" stroke-linecap="round" stroke-linejoin="round" stroke-miterlimit="10" d="
		M73.857,193.586l6.637-10.95h2.552l6.589,10.95c-0.882-0.834-2.041-1.624-3.342-2.182C81.886,189.457,76.92,190.57,73.857,193.586
		L73.857,193.586z"/>
	
		<polygon fill-rule="evenodd" clip-rule="evenodd" fill="#2C3E50" stroke="#2C3E50" stroke-width="0.9281" stroke-linecap="round" stroke-linejoin="round" stroke-miterlimit="10" points="
		63.695,188.204 59.008,196.092 51.027,182.636 76.456,182.636 68.429,196.092 	"/>
	
		<polygon fill-rule="evenodd" clip-rule="evenodd" fill="#2C3E50" stroke="#2C3E50" stroke-width="0.9281" stroke-linecap="round" stroke-linejoin="round" stroke-miterlimit="10" points="
		100.633,188.204 105.319,196.092 113.302,182.636 87.871,182.636 95.899,196.092 	"/>
</g>
</svg>
